<svg width="32" height="32" viewBox="0 0 32 32" fill="none" xmlns="http://www.w3.org/2000/svg">
<path fill-rule="evenodd" clip-rule="evenodd" d="M27.997 6.66675C28.7334 6.66675 29.3303 7.2637 29.3303 8.00008C29.3303 8.73646 28.7334 9.33341 27.997 9.33341H3.99999C3.26361 9.33341 2.66666 8.73646 2.66666 8.00008C2.66666 7.2637 3.26361 6.66675 3.99999 6.66675H27.997ZM27.997 12.0001C28.7334 12.0001 29.3303 12.597 29.3303 13.3334C29.3303 14.0698 28.7334 14.6667 27.997 14.6667H3.99999C3.26361 14.6667 2.66666 14.0698 2.66666 13.3334C2.66666 12.597 3.26361 12.0001 3.99999 12.0001H27.997ZM29.3303 18.6667C29.3303 17.9304 28.7334 17.3334 27.997 17.3334H3.99999C3.26361 17.3334 2.66666 17.9304 2.66666 18.6667C2.66666 19.4031 3.26361 20.0001 3.99999 20.0001H27.997C28.7334 20.0001 29.3303 19.4031 29.3303 18.6667ZM27.997 22.6667C28.7334 22.6667 29.3303 23.2637 29.3303 24.0001C29.3303 24.7365 28.7334 25.3334 27.997 25.3334H3.99887C3.26248 25.3334 2.66553 24.7365 2.66553 24.0001C2.66553 23.2637 3.26248 22.6667 3.99887 22.6667H27.997Z" fill="#787878"/>
</svg>
