<svg width="157" height="50" viewBox="0 0 157 50" fill="none" xmlns="http://www.w3.org/2000/svg">
<path d="M37.6063 19.2093C35.9014 17.3902 33.6406 16.479 30.8274 16.479C27.3498 16.479 24.7467 17.8882 23.0249 20.6997C21.503 17.8882 19.0694 16.479 15.7241 16.479C12.3787 16.479 10.0095 17.8035 8.32153 20.4525V17.126H4V41.9491H8.32153V28.1487C8.32153 25.7301 8.90791 23.8704 10.084 22.5628C11.2602 21.2553 12.7922 20.6015 14.6801 20.6015C16.3037 20.6015 17.5883 21.1401 18.5305 22.2139C19.4728 23.2911 19.9473 24.7714 19.9473 26.6582V41.9491H24.2688V28.1487C24.2688 25.6657 24.8078 23.7857 25.8822 22.512C26.9601 21.2383 28.4582 20.6015 30.38 20.6015C32.0679 20.6015 33.4 21.1401 34.3761 22.2139C35.3557 23.2911 35.8437 24.7714 35.8437 26.6582V41.9491H40.1653V26.5092C40.1653 23.4639 39.3111 21.0317 37.6063 19.2093V19.2093Z" fill="#152431"/>
<path d="M64.6507 20.2526C63.3627 18.9688 61.9256 18.0101 60.3359 17.3834C58.8141 16.7805 57.16 16.479 55.3602 16.479C51.6827 16.479 48.5881 17.7391 46.0698 20.2526C43.6972 22.6272 42.4431 25.5133 42.3041 28.9176C42.2973 29.1209 42.2939 29.3275 42.2939 29.5375C42.2939 33.2095 43.5548 36.3056 46.0698 38.8225C48.5881 41.336 51.6827 42.5961 55.3602 42.5961C59.0378 42.5961 62.1323 41.336 64.6507 38.8225C67.1995 36.2718 68.4773 33.179 68.4773 29.5375C68.4773 25.8961 67.1995 22.8033 64.6507 20.2526V20.2526ZM61.6205 35.8416C59.9292 37.5319 57.8447 38.3753 55.3602 38.3753C52.8758 38.3753 50.8387 37.5319 49.1508 35.8416C47.4629 34.1546 46.6189 32.0544 46.6189 29.5375C46.6189 28.0979 46.8968 26.7937 47.4493 25.6251C47.8628 24.7511 48.4289 23.9551 49.1508 23.2301C50.7879 21.594 52.7876 20.7506 55.1433 20.7031C55.2145 20.6997 55.2857 20.6997 55.3602 20.6997C57.8447 20.6997 59.9292 21.5432 61.6205 23.2301C63.3084 24.9205 64.1524 27.0207 64.1524 29.5375C64.1524 32.0544 63.3084 34.1546 61.6205 35.8416V35.8416Z" fill="#152431"/>
<path d="M90.2314 19.2361C88.4757 17.3967 86.1404 16.4787 83.2255 16.4787C79.5818 16.4787 76.9008 17.8879 75.179 20.6995V7.8916L70.8574 10.6557V41.9488H75.179V28.792C75.179 26.0787 75.8229 24.0361 77.1177 22.6608C78.4091 21.2889 80.1614 20.6012 82.3815 20.6012C84.3033 20.6012 85.8082 21.1636 86.903 22.2882C87.9944 23.4128 88.5435 24.9676 88.5435 26.9561V41.9488H92.865V26.7054C92.865 23.5619 91.9872 21.0721 90.2314 19.2361V19.2361Z" fill="#152431"/>
<path d="M101.392 8.34566C100.826 7.76641 100.148 7.4751 99.3547 7.4751C98.5616 7.4751 97.8295 7.76641 97.2668 8.34566C96.7042 8.92491 96.4229 9.60918 96.4229 10.4052C96.4229 11.2013 96.7042 11.8788 97.2668 12.4411C97.8295 13.0034 98.5243 13.2845 99.3547 13.2845C100.185 13.2845 100.826 13.0034 101.392 12.4411C101.954 11.8788 102.236 11.1979 102.236 10.4052C102.236 9.61256 101.954 8.92491 101.392 8.34566ZM97.1685 17.1259V41.949H101.49V17.1259H97.1685V17.1259Z" fill="#152431"/>
<path d="M109.872 21.2963V17.1263H105.551V41.9494H109.872V28.7927C109.872 26.0793 110.632 24.1112 112.157 22.885C113.679 21.6621 115.502 21.0964 117.621 21.198V16.6792C113.879 16.6792 111.296 18.2171 109.872 21.2963V21.2963Z" fill="#152431"/>
<path d="M138.685 17.6159H142.81V41.9927H138.685V37.7999C136.631 41.0176 133.643 42.6265 129.724 42.6265C126.405 42.6265 123.575 41.3914 121.236 38.9212C118.897 36.4185 117.728 33.3795 117.728 29.8043C117.728 26.229 118.897 23.2063 121.236 20.7361C123.575 18.2334 126.405 16.9821 129.724 16.9821C133.643 16.9821 136.631 18.5909 138.685 21.8087V17.6159ZM130.245 38.5312C132.648 38.5312 134.655 37.7024 136.267 36.0447C137.879 34.3546 138.685 32.2744 138.685 29.8043C138.685 27.3341 137.879 25.2702 136.267 23.6125C134.655 21.9224 132.648 21.0774 130.245 21.0774C127.874 21.0774 125.883 21.9224 124.271 23.6125C122.659 25.2702 121.853 27.3341 121.853 29.8043C121.853 32.2744 122.659 34.3546 124.271 36.0447C125.883 37.7024 127.874 38.5312 130.245 38.5312Z" fill="#3F9CFB"/>
<path d="M149.25 13.1793C148.46 13.1793 147.796 12.903 147.259 12.3505C146.721 11.7979 146.453 11.1316 146.453 10.3516C146.453 9.5715 146.721 8.9052 147.259 8.35266C147.796 7.76762 148.46 7.4751 149.25 7.4751C150.009 7.4751 150.657 7.76762 151.194 8.35266C151.731 8.9052 152 9.5715 152 10.3516C152 11.1316 151.731 11.7979 151.194 12.3505C150.657 12.903 150.009 13.1793 149.25 13.1793ZM147.164 41.9927V17.6159H151.289V41.9927H147.164Z" fill="#3F9CFB"/>
</svg>
