<svg width="24" height="24" viewBox="0 0 24 24" fill="none" xmlns="http://www.w3.org/2000/svg">
<circle cx="12" cy="12" r="12" fill="white" fill-opacity="0.1"/>
<path fill-rule="evenodd" clip-rule="evenodd" d="M15.5352 9.1715C15.7305 8.97624 15.7305 8.65966 15.5352 8.46439C15.3399 8.26913 15.0233 8.26913 14.8281 8.46439L12 11.2925L9.17191 8.46439C8.97665 8.26913 8.66007 8.26913 8.46481 8.46439C8.26954 8.65966 8.26954 8.97624 8.46481 9.1715L11.2929 11.9996L8.46413 14.8284C8.26886 15.0236 8.26886 15.3402 8.46413 15.5355C8.65939 15.7307 8.97597 15.7307 9.17123 15.5355L12 12.7067L14.8288 15.5355C15.024 15.7307 15.3406 15.7307 15.5359 15.5355C15.7311 15.3402 15.7311 15.0236 15.5359 14.8284L12.7071 11.9996L15.5352 9.1715Z" fill="white" fill-opacity="0.6"/>
</svg>
