<svg width="126" height="40" viewBox="0 0 126 40" fill="none" xmlns="http://www.w3.org/2000/svg">
<path d="M30.0843 15.3673C28.7203 13.9121 26.9117 13.1831 24.6611 13.1831C21.8791 13.1831 19.7966 14.3105 18.4191 16.5597C17.2016 14.3105 15.2547 13.1831 12.5785 13.1831C9.90218 13.1831 8.00682 14.2427 6.65644 16.3619V13.7007H3.19922V33.5592H6.65644V22.5189C6.65644 20.584 7.12555 19.0962 8.06642 18.0501C9.00738 17.0041 10.233 16.4811 11.7433 16.4811C13.0422 16.4811 14.0699 16.912 14.8236 17.771C15.5775 18.6328 15.9571 19.817 15.9571 21.3265V33.5592H19.4143V22.5189C19.4143 20.5325 19.8455 19.0285 20.705 18.0095C21.5673 16.9905 22.7658 16.4811 24.3032 16.4811C25.6535 16.4811 26.7192 16.912 27.5001 17.771C28.2838 18.6328 28.6742 19.817 28.6742 21.3265V33.5592H32.1315V21.2073C32.1315 18.771 31.4481 16.8253 30.0843 15.3673Z" fill="white"/>
<path d="M51.7214 16.202C50.691 15.1749 49.5413 14.408 48.2695 13.9066C47.0521 13.4243 45.7288 13.1831 44.289 13.1831C41.347 13.1831 38.8713 14.1912 36.8567 16.202C34.9586 18.1017 33.9553 20.4105 33.8441 23.134C33.8387 23.2966 33.8359 23.4619 33.8359 23.6299C33.8359 26.5675 34.8447 29.0444 36.8567 31.0579C38.8713 33.0687 41.347 34.0768 44.289 34.0768C47.2311 34.0768 49.7067 33.0687 51.7214 31.0579C53.7604 29.0173 54.7827 26.5431 54.7827 23.6299C54.7827 20.7168 53.7604 18.2425 51.7214 16.202ZM49.2972 28.6732C47.9442 30.0254 46.2766 30.7001 44.289 30.7001C42.3015 30.7001 40.6718 30.0254 39.3215 28.6732C37.9711 27.3236 37.2959 25.6434 37.2959 23.6299C37.2959 22.4782 37.5183 21.4349 37.9603 20.5C38.2911 19.8008 38.7439 19.164 39.3215 18.584C40.6311 17.2751 42.2309 16.6004 44.1155 16.5624C44.1724 16.5597 44.2294 16.5597 44.289 16.5597C46.2766 16.5597 47.9442 17.2345 49.2972 18.584C50.6475 19.9363 51.3227 21.6165 51.3227 23.6299C51.3227 25.6434 50.6475 27.3236 49.2972 28.6732Z" fill="white"/>
<path d="M72.1847 15.3888C70.7802 13.9173 68.9119 13.1829 66.58 13.1829C63.6651 13.1829 61.5203 14.3103 60.1428 16.5596V6.31323L56.6855 8.52451V33.559H60.1428V23.0336C60.1428 20.8629 60.6579 19.2288 61.6938 18.1286C62.7269 17.0311 64.1287 16.4809 65.9048 16.4809C67.4423 16.4809 68.6462 16.9308 69.522 17.8305C70.3951 18.7302 70.8344 19.974 70.8344 21.5648V33.559H74.2916V21.3643C74.2916 18.8495 73.5894 16.8576 72.1847 15.3888Z" fill="white"/>
<path d="M81.114 6.67643C80.6612 6.21303 80.1188 5.97998 79.4841 5.97998C78.8496 5.97998 78.264 6.21303 77.8138 6.67643C77.3637 7.13983 77.1387 7.68724 77.1387 8.32406C77.1387 8.96094 77.3637 9.50294 77.8138 9.95278C78.264 10.4026 78.8198 10.6275 79.4841 10.6275C80.1484 10.6275 80.6612 10.4026 81.114 9.95278C81.5636 9.50294 81.7892 8.95822 81.7892 8.32406C81.7892 7.68995 81.5636 7.13983 81.114 6.67643ZM77.7352 13.7006V33.5591H81.1924V13.7006H77.7352Z" fill="white"/>
<path d="M87.8982 17.0369V13.7009H84.4414V33.5594H87.8982V23.0341C87.8982 20.8633 88.5062 19.2889 89.7262 18.3079C90.9438 17.3296 92.4022 16.877 94.0974 16.9583V13.3433C91.1038 13.3433 89.0374 14.5736 87.8982 17.0369Z" fill="white"/>
<path d="M110.947 14.0927H114.247V33.5942H110.947V30.2399C109.304 32.8141 106.914 34.1012 103.778 34.1012C101.123 34.1012 98.8592 33.1131 96.988 31.137C95.1168 29.1348 94.1816 26.7036 94.1816 23.8435C94.1816 20.9832 95.1168 18.5651 96.988 16.5889C98.8592 14.5867 101.123 13.5857 103.778 13.5857C106.914 13.5857 109.304 14.8727 110.947 17.447V14.0927ZM104.195 30.825C106.118 30.825 107.723 30.1619 109.013 28.8358C110.302 27.4837 110.947 25.8195 110.947 23.8435C110.947 21.8673 110.302 20.2162 109.013 18.89C107.723 17.5379 106.118 16.8619 104.195 16.8619C102.298 16.8619 100.706 17.5379 99.416 18.89C98.1264 20.2162 97.4816 21.8673 97.4816 23.8435C97.4816 25.8195 98.1264 27.4837 99.416 28.8358C100.706 30.1619 102.298 30.825 104.195 30.825Z" fill="#3F9CFB"/>
<path d="M119.4 10.5433C118.768 10.5433 118.237 10.3223 117.807 9.8803C117.377 9.43822 117.162 8.90518 117.162 8.28118C117.162 7.6571 117.377 7.12406 117.807 6.68203C118.237 6.214 118.768 5.97998 119.4 5.97998C120.007 5.97998 120.525 6.214 120.955 6.68203C121.385 7.12406 121.6 7.6571 121.6 8.28118C121.6 8.90518 121.385 9.43822 120.955 9.8803C120.525 10.3223 120.007 10.5433 119.4 10.5433ZM117.731 33.5941V14.0926H121.031V33.5941H117.731Z" fill="#3F9CFB"/>
</svg>
