<svg width="19" height="16" viewBox="0 0 19 16" fill="none" xmlns="http://www.w3.org/2000/svg">
<path d="M18.1469 2.43147C17.4774 2.76679 16.8079 2.87856 16.0269 2.99033C16.8079 2.54324 17.3658 1.87261 17.589 0.978428C16.9195 1.42552 16.1384 1.64906 15.2458 1.87261C14.5763 1.20197 13.5721 0.754883 12.5679 0.754883C10.671 0.754883 8.99726 2.43147 8.99726 4.44338C8.99726 4.77869 8.99726 5.00224 9.10884 5.22578C6.09616 5.11401 3.30663 3.66097 1.52134 1.42552C1.18659 1.98438 1.07501 2.54324 1.07501 3.32565C1.07501 4.55515 1.7445 5.67287 2.74873 6.34351C2.19082 6.34351 1.63292 6.11996 1.07501 5.89642C1.07501 7.68478 2.3024 9.13782 3.97612 9.47314C3.64138 9.58491 3.30663 9.58491 2.97189 9.58491C2.74873 9.58491 2.52557 9.58491 2.3024 9.47314C2.74873 10.9262 4.0877 12.0439 5.76142 12.0439C4.53402 13.0499 2.97189 13.6087 1.18659 13.6087C0.85185 13.6087 0.628688 13.6087 0.293945 13.6087C1.96766 14.6147 3.86454 15.2853 5.873 15.2853C12.5679 15.2853 16.25 9.69668 16.25 4.89047C16.25 4.77869 16.25 4.55515 16.25 4.44338C17.0311 3.88451 17.7006 3.21388 18.1469 2.43147Z" fill="white"/>
</svg>
